HIERARCHY
ROOT Hips
{
	OFFSET 0.000000 0.000000 0.000000
	CHANNELS 6 Xposition Yposition Zposition Xrotation Yrotation Zrotation
	JOINT LeftUpLeg_virtual
	{
		OFFSET 0.000000 0.000000 0.000000
		CHANNELS 3 Xrotation Yrotation Zrotation
		JOINT LeftUpLeg
		{
			OFFSET 15.427100 -6.655098 0.678600
			CHANNELS 3 Xrotation Yrotation Zrotation
			JOINT LeftLeg
			{
				OFFSET 4.081073 -39.591068 13.024000
				CHANNELS 3 Xrotation Yrotation Zrotation
				JOINT LeftFoot
				{
					OFFSET -4.081074 -37.707932 -15.979700
					CHANNELS 3 Xrotation Yrotation Zrotation
					JOINT LeftToeBase
					{
						OFFSET 5.346399 -15.068900 20.645000
						CHANNELS 3 Xrotation Yrotation Zrotation
						JOINT LeftToe_End
						{
							OFFSET 2.754700 0.931300 11.300900
							CHANNELS 3 Xrotation Yrotation Zrotation
							End Site
							{
								OFFSET 0 0 0
							}
						}
					}
				}
			}
		}
	}
	JOINT RightUpLeg_virtual
	{
		OFFSET 0.000000 0.000000 0.000000
		CHANNELS 3 Xrotation Yrotation Zrotation
		JOINT RightUpLeg
		{
			OFFSET -15.569500 -6.655098 0.678600
			CHANNELS 3 Xrotation Yrotation Zrotation
			JOINT RightLeg
			{
				OFFSET -4.081825 -39.591045 13.023800
				CHANNELS 3 Xrotation Yrotation Zrotation
				JOINT RightFoot
				{
					OFFSET 4.081824 -37.707954 -15.979600
					CHANNELS 3 Xrotation Yrotation Zrotation
					JOINT RightToeBase
					{
						OFFSET -5.346400 -15.068900 20.645000
						CHANNELS 3 Xrotation Yrotation Zrotation
						JOINT RightToe_End
						{
							OFFSET -2.754700 0.931300 11.300900
							CHANNELS 3 Xrotation Yrotation Zrotation
							End Site
							{
								OFFSET 0 0 0
							}
						}
					}
				}
			}
		}
	}
	JOINT Spine_virtual
	{
		OFFSET 0.000000 0.000000 0.000000
		CHANNELS 3 Xrotation Yrotation Zrotation
		JOINT Spine
		{
			OFFSET -0.279200 12.230698 -2.892100
			CHANNELS 3 Xrotation Yrotation Zrotation
			JOINT Spine1
			{
				OFFSET -0.232667 10.192268 -1.242267
				CHANNELS 3 Xrotation Yrotation Zrotation
				JOINT Spine1_split
				{
					OFFSET -0.232667 10.192268 -1.242267
					CHANNELS 3 Xrotation Yrotation Zrotation
					JOINT Spine2
					{
						OFFSET -0.232667 10.192268 -1.242267
						CHANNELS 3 Xrotation Yrotation Zrotation
						JOINT Neck_virtual
						{
							OFFSET 0.000000 0.000000 0.000000
							CHANNELS 3 Xrotation Yrotation Zrotation
							JOINT Neck
							{
								OFFSET -0.418800 17.814194 8.416900
								CHANNELS 3 Xrotation Yrotation Zrotation
								JOINT Head
								{
									OFFSET 0.000000 7.031097 3.806800
									CHANNELS 3 Xrotation Yrotation Zrotation
									JOINT HeadTop_End
									{
										OFFSET 0.000000 24.646606 12.978600
										CHANNELS 3 Xrotation Yrotation Zrotation
										End Site
										{
											OFFSET 0 0 0
										}
									}
								}
							}
						}
						JOINT LeftShoulder_virtual
						{
							OFFSET 0.000000 0.000000 0.000000
							CHANNELS 3 Xrotation Yrotation Zrotation
							JOINT LeftShoulder
							{
								OFFSET 8.476499 7.247704 -3.868750
								CHANNELS 3 Xrotation Yrotation Zrotation
								JOINT LeftShoulder_split
								{
									OFFSET 8.476499 7.247704 -3.868750
									CHANNELS 3 Xrotation Yrotation Zrotation
									JOINT LeftArm
									{
										OFFSET 9.308998 -2.777710 0.208600
										CHANNELS 3 Xrotation Yrotation Zrotation
										JOINT LeftForeArm
										{
											OFFSET 29.972298 0.000000 0.000000
											CHANNELS 3 Xrotation Yrotation Zrotation
											JOINT LeftHand
											{
												OFFSET 26.026505 0.000000 0.000000
												CHANNELS 3 Xrotation Yrotation Zrotation
												End Site
												{
													OFFSET 0 0 0
												}
											}
										}
									}
								}
							}
						}
						JOINT RightShoulder_virtual
						{
							OFFSET 0.000000 0.000000 0.000000
							CHANNELS 3 Xrotation Yrotation Zrotation
							JOINT RightShoulder
							{
								OFFSET -7.570500 7.247704 -3.868750
								CHANNELS 3 Xrotation Yrotation Zrotation
								JOINT RightShoulder_split
								{
									OFFSET -7.570500 7.247704 -3.868750
									CHANNELS 3 Xrotation Yrotation Zrotation
									JOINT RightArm
									{
										OFFSET -9.308998 -2.777710 0.208500
										CHANNELS 3 Xrotation Yrotation Zrotation
										JOINT RightForeArm
										{
											OFFSET -29.972300 0.000000 0.000000
											CHANNELS 3 Xrotation Yrotation Zrotation
											JOINT RightHand
											{
												OFFSET -26.026505 0.000000 0.000000
												CHANNELS 3 Xrotation Yrotation Zrotation
												End Site
												{
													OFFSET 0 0 0
												}
											}
										}
									}
								}
							}
						}
					}
				}
			}
		}
	}
}
MOTION
Frames: 10
Frame Time: 0.03333333
-1.852267 69.824974 12.781276 0.000000 0.000000 0.000000 11.255926 7.926269 1.689494 5.030454 8.594044 13.378569 37.129147 -1.505227 4.747235 15.981895 15.882621 -12.076490 -57.428613 -6.937728 -22.286766 0.000000 0.000000 0.000000 14.213575 0.310919 -1.493333 -64.472737 0.357365 4.862664 84.345139 -13.706048 -11.293203 -7.190637 0.529879 8.986803 -41.101490 9.192149 -10.889783 0.000000 0.000000 0.000000 2.267184 4.102619 -5.311673 4.476830 0.392779 2.370113 0.729401 -4.406083 2.448036 -0.480715 0.460968 0.352447 0.000000 0.000000 0.000000 0.569486 -2.912588 1.746799 2.094282 -1.565151 -2.226196 -6.235698 27.508527 2.285924 0.000000 0.000000 0.000000 3.348534 -2.591661 1.389772 0.762011 1.569437 -1.784361 -1.893100 4.246268 1.217003 -15.413058 14.172049 -55.537122 174.787519 -62.753975 173.848272 0.000000 0.000000 0.000000 -9.410140 -4.704365 0.101427 -7.329552 -4.432774 0.931520 12.285814 -26.772777 7.157105 -67.287718 39.381798 91.943779 0.825918 63.641893 -0.523184 0.000000 0.000000 0.000000 
-1.040838 73.569801 11.852591 0.000000 0.000000 0.000000 10.969525 8.207665 1.267155 3.360177 7.727189 12.444452 35.970904 -1.585975 5.390522 18.117972 14.761026 -10.652789 -44.882976 -8.387244 -19.244357 0.000000 0.000000 0.000000 13.921674 0.317372 -2.076240 -62.310019 -0.158931 5.813838 79.470904 -14.271474 -12.257230 -5.797247 0.200022 10.278840 -35.779174 8.628614 -10.512234 0.000000 0.000000 0.000000 2.532992 5.310829 -4.711314 4.141093 0.020570 2.321438 0.916616 -4.170598 2.438501 -0.934549 0.799462 0.476963 0.000000 0.000000 0.000000 0.548280 -2.737796 1.755141 1.929245 -1.565179 -2.219113 -6.503295 27.452321 2.517720 0.000000 0.000000 0.000000 3.497443 -2.935631 1.378790 0.635492 0.365289 -1.763004 -3.505080 2.571645 1.916347 -21.602222 9.166163 -54.937930 173.977281 -67.097757 172.947329 0.000000 0.000000 0.000000 -8.700356 -4.174629 0.036626 -7.707109 -3.380069 0.609852 10.760896 -24.761294 6.481775 -69.637153 38.223371 91.226985 0.825918 63.641893 -0.523184 0.000000 0.000000 0.000000 
-0.052853 79.113869 10.737808 0.000000 0.000000 0.000000 10.511464 9.768333 1.044317 0.001465 5.743572 10.392163 37.250926 -0.793935 6.472760 19.656683 12.116034 -7.599058 -16.562990 -8.779214 -7.612952 0.000000 0.000000 0.000000 13.097652 0.741221 -1.959605 -57.254983 -0.969241 6.168523 69.589642 -15.216442 -14.022763 -1.581259 -0.547897 9.417338 -21.433400 5.954305 -11.306039 0.000000 0.000000 0.000000 2.695770 5.909894 -3.527802 3.882828 0.242889 1.965212 1.316397 -3.526493 2.308982 -1.161947 0.836871 0.676435 0.000000 0.000000 0.000000 0.646325 -2.275413 1.720177 1.626383 -1.585515 -2.383846 -6.824304 26.503695 2.771619 0.000000 0.000000 0.000000 4.061365 -3.028330 1.077213 0.386888 -2.202742 -1.487073 -3.878698 2.722385 2.034966 -31.876349 1.368163 -54.109571 171.221327 -73.637082 169.890560 0.000000 0.000000 0.000000 -7.250457 -3.048121 0.186222 -7.604726 -1.960213 -0.050344 8.446080 -21.308698 5.226520 -72.414629 36.198227 88.838549 0.825918 63.641893 -0.523184 0.000000 0.000000 0.000000 
0.697769 84.736488 9.505362 0.000000 0.000000 0.000000 9.780708 12.108926 1.206949 -5.239154 4.096201 7.345747 41.384369 0.683629 7.211620 19.867084 8.750051 -4.726843 15.751454 -1.385325 5.924755 0.000000 0.000000 0.000000 11.532093 0.936066 -1.331440 -51.168478 -1.856721 6.338929 58.673053 -15.561292 -16.009537 3.003381 -1.585975 7.145153 -1.736524 1.756570 -11.266952 0.000000 0.000000 0.000000 2.770400 7.337217 -2.304347 3.818531 0.362954 1.495161 1.838784 -2.830035 2.243259 -1.101550 0.842760 0.831087 0.000000 0.000000 0.000000 0.885618 -1.621070 1.675469 1.309567 -1.655279 -2.561226 -7.238279 24.922054 2.997018 0.000000 0.000000 0.000000 4.968977 -2.850131 0.580074 0.100575 -5.462035 -0.496893 -3.334179 3.618191 1.463516 -44.031907 -7.168924 -54.231251 162.253398 -80.833055 160.449490 0.000000 0.000000 0.000000 -5.325456 -1.579413 0.531263 -7.098714 -0.521800 -1.047134 5.492850 -17.375458 3.314841 -75.257032 33.218495 85.019743 0.825918 63.641893 -0.523184 0.000000 0.000000 0.000000 
1.256331 89.358765 8.085344 0.000000 0.000000 0.000000 8.545166 14.026566 1.568568 -12.349490 3.821273 4.025647 48.855745 2.576886 7.442264 18.768851 5.524085 -3.110682 39.096464 9.175505 12.498461 0.000000 0.000000 0.000000 9.385080 2.062797 -1.023064 -45.298600 -3.318289 6.285909 49.568558 -14.948528 -17.114180 6.327860 -2.628650 4.995115 16.212936 -1.990025 -9.384056 0.000000 0.000000 0.000000 2.670121 8.835815 -1.213340 3.963066 0.625147 0.849516 2.286010 -2.059925 2.251934 -0.842913 1.002084 0.864019 0.000000 0.000000 0.000000 1.234594 -0.911161 1.663344 1.088292 -1.844807 -2.576427 -7.702897 23.236012 3.062488 0.000000 0.000000 0.000000 6.009982 -2.511634 0.062197 -0.086654 -8.746297 1.623421 -2.745542 3.853096 0.953120 -56.610582 -14.146517 -55.343729 108.243520 -86.585393 106.028168 0.000000 0.000000 0.000000 -3.084440 -0.014319 0.986889 -6.330902 0.707581 -2.619301 2.201331 -13.129655 0.725467 -78.227639 28.965897 80.168683 0.825918 63.641893 -0.523184 0.000000 0.000000 0.000000 
1.401112 91.903374 7.202026 0.000000 0.000000 0.000000 7.352367 15.303473 1.900291 -21.080479 4.729440 1.360931 59.812991 4.914625 7.163134 16.547248 3.396827 -2.856301 52.069701 15.787835 12.915677 0.000000 0.000000 0.000000 7.015597 2.880652 -0.569286 -40.486991 -4.277956 6.489432 44.552436 -13.602465 -16.126367 7.152082 -3.130420 4.304055 27.070347 -4.097560 -6.966427 0.000000 0.000000 0.000000 2.174999 9.734202 -0.728995 4.557417 0.816465 0.124376 2.701428 -1.429614 2.353193 -0.572843 1.375147 0.823402 0.000000 0.000000 0.000000 1.626572 -0.275015 1.709218 1.061224 -2.183032 -2.346207 -8.106937 21.877828 2.974335 0.000000 0.000000 0.000000 6.950390 -2.152817 -0.341114 -0.057225 -11.360006 5.160438 -1.904164 3.869148 1.087961 -68.233262 -17.881760 -56.678221 29.336854 -82.344522 26.839872 0.000000 0.000000 0.000000 -0.701205 1.440268 1.489707 -5.474623 1.627625 -5.017851 -0.324577 -8.616787 -2.456469 -81.504060 23.231053 74.991365 0.825918 63.641893 -0.523184 0.000000 0.000000 0.000000 
1.114275 92.555557 7.066813 0.000000 0.000000 0.000000 6.386952 15.151255 1.862713 -31.363033 6.698547 -0.349041 72.613606 7.567369 6.518787 13.446138 3.157274 -3.124405 56.783150 17.477196 10.972036 0.000000 0.000000 0.000000 4.537568 4.292450 -0.495661 -36.278762 -4.873846 6.726568 43.552821 -11.360735 -12.933439 6.272516 -2.760183 5.079000 29.779300 -4.912069 -5.622827 0.000000 0.000000 0.000000 1.197784 10.398520 -0.730665 5.574674 0.811627 -0.420756 3.140286 -1.081426 2.474871 -0.402325 1.917819 0.749616 0.000000 0.000000 0.000000 1.988964 0.202520 1.787108 1.223052 -2.637024 -1.948976 -8.334251 21.231394 2.830645 0.000000 0.000000 0.000000 7.627206 -1.938272 -0.504586 0.220641 -13.045541 10.081140 -1.208622 3.553408 1.576654 -78.287212 -18.518670 -57.493179 16.209145 -75.428019 13.634926 0.000000 0.000000 0.000000 1.493526 2.632477 1.961067 -4.687260 2.073827 -8.532071 -1.812712 -4.106649 -6.013623 -85.639316 16.699633 70.450355 0.825918 63.641893 -0.523184 0.000000 0.000000 0.000000 
0.801405 91.806671 7.366039 0.000000 0.000000 0.000000 5.056833 14.139152 1.752916 -42.303760 8.657510 -1.304037 85.179713 9.865507 5.842691 10.494587 4.667593 -3.087705 54.934122 15.176491 8.377213 0.000000 0.000000 0.000000 2.173568 5.385303 -0.745150 -32.689111 -4.898754 7.073470 45.198002 -8.410435 -8.584820 4.439925 -2.018065 7.123477 24.463552 -4.913410 -6.130087 0.000000 0.000000 0.000000 -0.159124 10.053874 -0.891980 6.834059 0.823589 -0.813545 3.482293 -0.933316 2.424397 -0.330124 2.467087 0.641135 0.000000 0.000000 0.000000 2.249411 0.474166 1.851748 1.484508 -3.109972 -1.536439 -8.098752 21.626259 2.622649 0.000000 0.000000 0.000000 7.942406 -1.966748 -0.415685 0.645362 -13.849619 15.774274 -1.013246 3.056489 2.145715 -86.488985 -16.783909 -57.922613 11.842627 -70.684378 9.553629 0.000000 0.000000 0.000000 3.011953 3.446503 2.336857 -4.164565 2.001693 -13.181228 -2.695496 -0.630031 -8.941355 -90.500225 10.341339 66.931442 0.825918 63.641893 -0.523184 0.000000 0.000000 0.000000 
0.620032 89.665909 8.153421 0.000000 0.000000 0.000000 3.538312 13.028057 1.594151 -52.923779 9.933990 -1.430329 96.004996 11.059880 5.084878 8.628855 6.923368 -2.546573 49.083973 10.442414 5.333038 0.000000 0.000000 0.000000 0.039486 5.211771 -0.936845 -30.103082 -3.900369 7.427688 49.102804 -5.274691 -4.511546 2.110213 -1.377024 9.400972 12.049119 -3.993270 -8.234818 0.000000 0.000000 0.000000 -2.046082 9.064349 -1.047765 8.251204 0.682373 -1.017875 3.668058 -1.039189 2.152589 -0.383246 2.925049 0.486265 0.000000 0.000000 0.000000 2.376236 0.555828 1.851431 1.720748 -3.503991 -1.268797 -7.209582 22.873994 2.325863 0.000000 0.000000 0.000000 7.876394 -2.189057 -0.247253 1.034492 -13.997800 21.408519 -0.933105 2.800348 2.674794 -92.500733 -13.491674 -58.196968 9.788799 -69.654522 8.112082 0.000000 0.000000 0.000000 3.617928 3.881690 2.647580 -3.938591 1.565853 -18.607882 -3.284245 1.489336 -10.415104 -95.358559 4.913444 64.593966 0.825918 63.641893 -0.523184 0.000000 0.000000 0.000000 
0.491762 86.351433 9.432116 0.000000 0.000000 0.000000 2.270101 11.516905 1.300575 -62.508177 10.264806 -0.607635 104.630807 10.607730 4.442088 7.352118 9.476771 -1.489163 43.008386 6.158714 2.998972 0.000000 0.000000 0.000000 -1.860827 5.163718 -1.440792 -28.430053 -3.394384 7.391810 54.577033 -2.367218 -1.424713 0.123622 -0.824651 10.611176 -5.005350 -1.773540 -10.664832 0.000000 0.000000 0.000000 -4.346389 8.101864 -0.966559 9.600954 0.460390 -1.002909 3.733769 -1.228704 1.708173 -0.497929 3.306211 0.348153 0.000000 0.000000 0.000000 2.387271 0.513581 1.738674 1.806668 -3.788738 -1.249158 -5.760707 24.408067 1.985157 0.000000 0.000000 0.000000 7.490587 -2.443445 -0.210318 1.259280 -13.930413 26.244198 -0.999391 2.694966 3.043011 -96.250445 -9.464298 -58.213559 8.657415 -72.423624 7.917101 0.000000 0.000000 0.000000 3.449691 4.060093 2.950043 -3.807356 1.087464 -24.117782 -3.972090 2.440537 -10.475377 -99.602531 0.921999 63.231692 0.825918 63.641893 -0.523184 0.000000 0.000000 0.000000 
